<mxfile host="app.diagrams.net" modified="2021-06-16T00:46:46.101Z" agent="5.0 (Windows NT 10.0; Win64; x64) AppleWebKit/537.36 (KHTML, like Gecko) Chrome/91.0.4472.101 Safari/537.36" etag="CLh29LbCAlsJSASFYDh8" version="14.7.7" type="github">
  <diagram id="ExJXHOA_togmI1vWCyRJ" name="Page-1">
    <mxGraphModel dx="1422" dy="1874" grid="0" gridSize="10" guides="1" tooltips="1" connect="1" arrows="1" fold="1" page="1" pageScale="1" pageWidth="827" pageHeight="1169" background="none" math="0" shadow="0">
      <root>
        <mxCell id="0" />
        <mxCell id="1" parent="0" />
        <mxCell id="WsZb8QZFu8ekhgZ04iRh-14" value="Domain" style="verticalLabelPosition=top;verticalAlign=bottom;html=1;shape=mxgraph.basic.rect;fillColor2=none;strokeWidth=2;size=20;indent=5;fillColor=#f8cecc;align=right;labelPosition=center;" parent="1" vertex="1">
          <mxGeometry x="58" y="258" width="658" height="138" as="geometry" />
        </mxCell>
        <mxCell id="7t8pAxL2XBSFEx_QZdYA-15" style="edgeStyle=orthogonalEdgeStyle;rounded=0;jumpStyle=none;orthogonalLoop=1;jettySize=auto;html=1;exitX=0;exitY=0.5;exitDx=0;exitDy=0;entryX=1;entryY=0.5;entryDx=0;entryDy=0;strokeWidth=2;strokeColor=#660000;" edge="1" parent="1" source="WsZb8QZFu8ekhgZ04iRh-1" target="7t8pAxL2XBSFEx_QZdYA-1">
          <mxGeometry relative="1" as="geometry" />
        </mxCell>
        <mxCell id="WsZb8QZFu8ekhgZ04iRh-1" value="Authenctication" style="whiteSpace=wrap;html=1;dashed=1;glass=0;strokeWidth=2;perimeterSpacing=0;labelBorderColor=none;labelBackgroundColor=none;strokeColor=#990000;rounded=1;" parent="1" vertex="1">
          <mxGeometry x="336.5" y="300" width="120" height="60" as="geometry" />
        </mxCell>
        <mxCell id="WsZb8QZFu8ekhgZ04iRh-3" value="AccountEntity" style="whiteSpace=wrap;html=1;glass=0;strokeWidth=2;perimeterSpacing=0;labelBorderColor=none;labelBackgroundColor=none;strokeColor=#990000;" parent="1" vertex="1">
          <mxGeometry x="539" y="300" width="120" height="60" as="geometry" />
        </mxCell>
        <mxCell id="WsZb8QZFu8ekhgZ04iRh-6" value="" style="endArrow=classic;html=1;exitX=1;exitY=0.5;exitDx=0;exitDy=0;strokeColor=#990000;strokeWidth=2;entryX=0;entryY=0.5;entryDx=0;entryDy=0;" parent="1" source="WsZb8QZFu8ekhgZ04iRh-1" edge="1" target="WsZb8QZFu8ekhgZ04iRh-3">
          <mxGeometry width="50" height="50" relative="1" as="geometry">
            <mxPoint x="270" y="432.5" as="sourcePoint" />
            <mxPoint x="526" y="330" as="targetPoint" />
          </mxGeometry>
        </mxCell>
        <mxCell id="WsZb8QZFu8ekhgZ04iRh-15" value="Data" style="verticalLabelPosition=top;verticalAlign=bottom;html=1;shape=mxgraph.basic.rect;fillColor2=none;strokeWidth=2;size=20;indent=5;align=right;labelPosition=center;fillColor=#d5e8d4;strokeColor=#82b366;" parent="1" vertex="1">
          <mxGeometry x="76" y="-60" width="640" height="229" as="geometry" />
        </mxCell>
        <mxCell id="7t8pAxL2XBSFEx_QZdYA-4" style="edgeStyle=orthogonalEdgeStyle;rounded=0;orthogonalLoop=1;jettySize=auto;html=1;strokeColor=#006600;strokeWidth=2;" edge="1" parent="1" source="7t8pAxL2XBSFEx_QZdYA-10" target="WsZb8QZFu8ekhgZ04iRh-1">
          <mxGeometry relative="1" as="geometry">
            <mxPoint x="397" y="152" as="sourcePoint" />
          </mxGeometry>
        </mxCell>
        <mxCell id="WsZb8QZFu8ekhgZ04iRh-28" value="HttpClient" style="whiteSpace=wrap;html=1;dashed=1;glass=0;strokeWidth=2;perimeterSpacing=0;labelBorderColor=none;labelBackgroundColor=none;rounded=1;strokeColor=#006600;" parent="1" vertex="1">
          <mxGeometry x="336.5" y="-37" width="120" height="60" as="geometry" />
        </mxCell>
        <mxCell id="7t8pAxL2XBSFEx_QZdYA-1" value="AuthenticationParams" style="whiteSpace=wrap;html=1;glass=0;strokeWidth=2;perimeterSpacing=0;labelBorderColor=none;labelBackgroundColor=none;strokeColor=#990000;" vertex="1" parent="1">
          <mxGeometry x="135.5" y="300" width="135" height="60" as="geometry" />
        </mxCell>
        <mxCell id="7t8pAxL2XBSFEx_QZdYA-16" style="edgeStyle=orthogonalEdgeStyle;rounded=0;jumpStyle=none;orthogonalLoop=1;jettySize=auto;html=1;exitX=0.5;exitY=1;exitDx=0;exitDy=0;strokeWidth=2;strokeColor=#006600;" edge="1" parent="1" source="7t8pAxL2XBSFEx_QZdYA-9" target="7t8pAxL2XBSFEx_QZdYA-1">
          <mxGeometry relative="1" as="geometry" />
        </mxCell>
        <mxCell id="7t8pAxL2XBSFEx_QZdYA-9" value="RemoteAuthenticationParams" style="whiteSpace=wrap;html=1;glass=0;strokeWidth=2;perimeterSpacing=0;labelBorderColor=none;labelBackgroundColor=none;rounded=0;strokeColor=#006600;" vertex="1" parent="1">
          <mxGeometry x="115" y="72" width="176" height="61" as="geometry" />
        </mxCell>
        <mxCell id="7t8pAxL2XBSFEx_QZdYA-14" style="edgeStyle=orthogonalEdgeStyle;rounded=0;jumpStyle=none;orthogonalLoop=1;jettySize=auto;html=1;exitX=0.25;exitY=1;exitDx=0;exitDy=0;entryX=0.75;entryY=0;entryDx=0;entryDy=0;dashed=1;strokeColor=#009900;strokeWidth=2;" edge="1" parent="1" source="7t8pAxL2XBSFEx_QZdYA-10" target="7t8pAxL2XBSFEx_QZdYA-1">
          <mxGeometry relative="1" as="geometry" />
        </mxCell>
        <mxCell id="7t8pAxL2XBSFEx_QZdYA-18" style="edgeStyle=orthogonalEdgeStyle;rounded=0;jumpStyle=none;orthogonalLoop=1;jettySize=auto;html=1;entryX=0;entryY=0.5;entryDx=0;entryDy=0;strokeColor=#006600;strokeWidth=2;" edge="1" parent="1" source="7t8pAxL2XBSFEx_QZdYA-10" target="7t8pAxL2XBSFEx_QZdYA-11">
          <mxGeometry relative="1" as="geometry" />
        </mxCell>
        <mxCell id="7t8pAxL2XBSFEx_QZdYA-21" style="edgeStyle=orthogonalEdgeStyle;rounded=0;jumpStyle=none;orthogonalLoop=1;jettySize=auto;html=1;exitX=0;exitY=0.5;exitDx=0;exitDy=0;entryX=1;entryY=0.5;entryDx=0;entryDy=0;strokeColor=#006600;strokeWidth=2;" edge="1" parent="1" source="7t8pAxL2XBSFEx_QZdYA-10" target="7t8pAxL2XBSFEx_QZdYA-9">
          <mxGeometry relative="1" as="geometry" />
        </mxCell>
        <mxCell id="7t8pAxL2XBSFEx_QZdYA-22" style="edgeStyle=orthogonalEdgeStyle;rounded=0;jumpStyle=none;orthogonalLoop=1;jettySize=auto;html=1;exitX=0.5;exitY=0;exitDx=0;exitDy=0;strokeColor=#006600;strokeWidth=2;" edge="1" parent="1" source="7t8pAxL2XBSFEx_QZdYA-10" target="WsZb8QZFu8ekhgZ04iRh-28">
          <mxGeometry relative="1" as="geometry" />
        </mxCell>
        <mxCell id="7t8pAxL2XBSFEx_QZdYA-10" value="RemoteAuthenctication" style="whiteSpace=wrap;html=1;glass=0;strokeWidth=2;perimeterSpacing=0;labelBorderColor=none;labelBackgroundColor=none;rounded=0;strokeColor=#006600;" vertex="1" parent="1">
          <mxGeometry x="325.5" y="71" width="142" height="60" as="geometry" />
        </mxCell>
        <mxCell id="7t8pAxL2XBSFEx_QZdYA-17" style="edgeStyle=orthogonalEdgeStyle;rounded=0;jumpStyle=none;orthogonalLoop=1;jettySize=auto;html=1;entryX=0.5;entryY=0;entryDx=0;entryDy=0;strokeWidth=2;strokeColor=#006600;" edge="1" parent="1" source="7t8pAxL2XBSFEx_QZdYA-11" target="WsZb8QZFu8ekhgZ04iRh-3">
          <mxGeometry relative="1" as="geometry" />
        </mxCell>
        <mxCell id="7t8pAxL2XBSFEx_QZdYA-11" value="RemoteAccountModel" style="whiteSpace=wrap;html=1;glass=0;strokeWidth=2;perimeterSpacing=0;labelBorderColor=none;labelBackgroundColor=none;rounded=0;strokeColor=#006600;" vertex="1" parent="1">
          <mxGeometry x="528" y="72" width="142" height="59" as="geometry" />
        </mxCell>
        <mxCell id="7t8pAxL2XBSFEx_QZdYA-12" style="edgeStyle=orthogonalEdgeStyle;rounded=0;orthogonalLoop=1;jettySize=auto;html=1;exitX=0.75;exitY=1;exitDx=0;exitDy=0;entryX=0.25;entryY=0;entryDx=0;entryDy=0;dashed=1;strokeWidth=2;jumpStyle=none;strokeColor=#009900;" edge="1" source="7t8pAxL2XBSFEx_QZdYA-10" parent="1">
          <mxGeometry relative="1" as="geometry">
            <mxPoint x="584" y="302.5" as="targetPoint" />
            <Array as="points">
              <mxPoint x="432" y="219" />
              <mxPoint x="584" y="219" />
            </Array>
          </mxGeometry>
        </mxCell>
        <mxCell id="7t8pAxL2XBSFEx_QZdYA-23" value="" style="rounded=0;whiteSpace=wrap;html=1;strokeColor=#6c8ebf;fillColor=#dae8fc;" vertex="1" parent="1">
          <mxGeometry x="76" y="-232" width="640" height="141" as="geometry" />
        </mxCell>
        <mxCell id="7t8pAxL2XBSFEx_QZdYA-25" style="edgeStyle=orthogonalEdgeStyle;rounded=0;jumpStyle=none;orthogonalLoop=1;jettySize=auto;html=1;strokeWidth=2;strokeColor=#007FFF;" edge="1" parent="1" source="7t8pAxL2XBSFEx_QZdYA-24" target="WsZb8QZFu8ekhgZ04iRh-28">
          <mxGeometry relative="1" as="geometry" />
        </mxCell>
        <mxCell id="7t8pAxL2XBSFEx_QZdYA-27" style="edgeStyle=orthogonalEdgeStyle;rounded=0;jumpStyle=none;orthogonalLoop=1;jettySize=auto;html=1;entryX=0.5;entryY=1;entryDx=0;entryDy=0;strokeColor=#007FFF;strokeWidth=2;" edge="1" parent="1" source="7t8pAxL2XBSFEx_QZdYA-24" target="7t8pAxL2XBSFEx_QZdYA-26">
          <mxGeometry relative="1" as="geometry" />
        </mxCell>
        <mxCell id="7t8pAxL2XBSFEx_QZdYA-24" value="HttpAdapter" style="rounded=0;whiteSpace=wrap;html=1;strokeWidth=2;strokeColor=#3399FF;" vertex="1" parent="1">
          <mxGeometry x="336" y="-190" width="120" height="58" as="geometry" />
        </mxCell>
        <mxCell id="7t8pAxL2XBSFEx_QZdYA-26" value="Http" style="rounded=0;whiteSpace=wrap;html=1;strokeColor=#666666;strokeWidth=2;fillColor=#f5f5f5;fontColor=#333333;" vertex="1" parent="1">
          <mxGeometry x="336" y="-334" width="120" height="60" as="geometry" />
        </mxCell>
      </root>
    </mxGraphModel>
  </diagram>
</mxfile>
